<svg width="375.000000" height="390.000000" viewBox="0 0 375 390" fill="none" xmlns="http://www.w3.org/2000/svg" xmlns:xlink="http://www.w3.org/1999/xlink">
	<desc>
			Created with Pixso.
	</desc>
	<defs>
		<clipPath id="clip13_744">
			<rect id="mynaui:image" rx="0.000000" width="65.000000" height="65.000000" transform="translate(155.500000 162.500000)" fill="white" fill-opacity="0"/>
		</clipPath>
	</defs>
	<rect id="Rectangle 2" width="375.000000" height="390.000000" fill="#E7E8E8" fill-opacity="1.000000"/>
	<rect id="mynaui:image" rx="0.000000" width="65.000000" height="65.000000" transform="translate(155.500000 162.500000)" fill="#FFFFFF" fill-opacity="0"/>
	<g clip-path="url(#clip13_744)">
		<path id="Vector" d="M174.48 187.88C175.51 188.92 176.91 189.5 178.37 189.5C179.83 189.5 181.23 188.92 182.26 187.88C183.29 186.85 183.87 185.45 183.87 184C183.87 182.54 183.29 181.14 182.26 180.11C181.23 179.07 179.83 178.5 178.37 178.5C176.91 178.5 175.51 179.07 174.48 180.11C173.45 181.14 172.87 182.54 172.87 184C172.87 185.45 173.45 186.85 174.48 187.88ZM212.54 189.47C194.37 186.97 178.69 200.47 179.75 218.37" stroke="#000000" stroke-opacity="1.000000" stroke-width="3.000000" stroke-linejoin="round" stroke-linecap="round"/>
		<path id="Vector" d="M163.25 197.93C170.89 196.87 177.75 200.56 181.46 206.45" stroke="#000000" stroke-opacity="1.000000" stroke-width="3.000000" stroke-linejoin="round" stroke-linecap="round"/>
		<path id="Vector" d="M164.44 176.25C165.5 174.18 167.18 172.5 169.25 171.44C171.61 170.25 174.69 170.25 180.85 170.25L195.15 170.25C201.31 170.25 204.39 170.25 206.74 171.44C208.81 172.5 210.49 174.18 211.55 176.25C212.75 178.61 212.75 181.69 212.75 187.85L212.75 202.15C212.75 208.31 212.75 211.39 211.55 213.74C210.49 215.81 208.81 217.49 206.74 218.55C204.39 219.75 201.31 219.75 195.15 219.75L180.85 219.75C174.69 219.75 171.61 219.75 169.25 218.55C167.18 217.49 165.5 215.81 164.44 213.74C163.25 211.39 163.25 208.31 163.25 202.15L163.25 187.85C163.25 181.69 163.25 178.61 164.44 176.25Z" stroke="#000000" stroke-opacity="1.000000" stroke-width="3.000000" stroke-linejoin="round"/>
	</g>
</svg>
